# xmcd
#
# Track frame offsets:
#	150
#	15926
#	30248
#	44457
#	59095
#	77401
#
# Disc length: 1244 seconds
#
# Revision: 1
# Processed by: cddbd v1.5.2PL0 Copyright (c) Steve Scherf et al.
# Submitted via: audiograbber 1.83.01
#
DISCID=3a04da06
DTITLE=Chris Denem - Angel In Rain
DYEAR=2007
DGENRE=Country
TTITLE0=Lucinda
TTITLE1=The Other World
TTITLE2=There You Have It
TTITLE3=Angel In Rain
TTITLE4=Hard Life
TTITLE5=Ferris Wheel
EXTD=
EXTT0=
EXTT1=
EXTT2=
EXTT3=
EXTT4=
EXTT5=
PLAYORDER=
